<?xml version="1.0" encoding="utf-8"?>
<!-- Generator: Adobe Illustrator 22.1.0, SVG Export Plug-In . SVG Version: 6.00 Build 0)  -->
<svg version="1.1" id="Layer_1" xmlns="http://www.w3.org/2000/svg" xmlns:xlink="http://www.w3.org/1999/xlink" x="0px" y="0px"
	 viewBox="0 0 800 654" style="enable-background:new 0 0 800 654;" xml:space="preserve">
<style type="text/css">
	.st0{fill:#FFFFFF;}
</style>
<path d="M171.4,78.6c-0.9,4.7-0.5,8.1,3.6,11.2c4.4,3.3,5.5,8.9,5.6,14.4c0,4.5,0,9,0,13.5c0,93.8,0,187.7-0.1,281.5
	c0,5.5,1.1,8.7,6.4,11.6c13.6,7.5,22.7,19.6,28.8,33.6c19.3,43.9,19.2,87.9-2.1,131.1c-4.4,8.9-11.2,17.1-18.5,23.9
	c-19.4,17.8-44,17-63.3-1.1c-15.4-14.4-23.7-32.8-28.3-52.9c-7.8-33.9-5.9-67.1,8.5-99.1c7.3-16.1,17.5-29.8,33.8-38.1
	c1-0.5,1.8-2.1,2.1-3.4c0.4-1.6,0.1-3.3,0.1-5c0-98,0-196,0-294c0-7.4,2-13.5,7.9-18.5c1.6-1.3,1.4-5,1.4-7.7c0-0.5-3-1.4-4.6-1.4
	c-25.2-0.1-50.3,0-75.5-0.1c-3,0-4.7,1-6.3,3.5c-6.6,10.4-18.6,15-29.9,11.7c-11.6-3.4-19.4-13.6-19.4-25.5
	c0-12.3,7.7-22.5,19.5-25.9c11.5-3.3,23.1,1.4,29.9,11.6c1,1.5,3.1,3.3,4.7,3.3c27,0.2,54,0.1,81,0.1c-0.3-0.5-0.5-0.9-0.8-1.4
	c2.8-2,5.4-5.2,8.5-5.8c4.2-0.7,6.1,3.1,6.9,7c47.5,0,94.8,0,142.3,0c0.9-3.9,2.6-7.1,7-7.2c4.5-0.1,6.3,3.1,7.1,7.1
	c47.4,0,94.7,0,142.2,0c1.2-3.7,2.8-7.9,7.5-6.9c2.8,0.6,5.2,3.6,7.7,5.5c-0.3,0.5-0.6,0.9-0.9,1.4c47.3,0,94.6,0,142.1,0
	c1-3.7,2.7-7.8,7.3-6.9c2.9,0.6,5.4,3.6,8.1,5.6c-0.3,0.5-0.5,1.1-0.8,1.6c9.3,0,18.6,0,27.9,0c18.2,0,36.3-0.1,54.5,0.1
	c3,0,4.7-0.8,6.3-3.5c6.3-10.4,18.3-14.9,29.8-11.7c11.6,3.3,19.4,13.5,19.5,25.4c0.1,12.1-7.6,22.4-19,25.8
	c-11.5,3.4-23.5-0.8-30-11.1c-1.9-2.9-3.8-3.9-7.1-3.9c-25.8,0.1-51.7,0-77.5,0.2c-1.7,0-4.8,1-4.8,1.7c-0.2,2.4-0.2,6,1.3,7.2
	c6.4,5.2,8.1,11.7,8.1,19.4c-0.1,98.3,0,196.7-0.1,295c0,3.9,0.9,6.1,4.6,8.1c16.8,9.1,27.1,24.1,33.5,41.4
	c16.7,44.9,15.5,89-8.9,131.2c-8.1,14.1-19.8,24.8-36.2,28.6c-15,3.5-28-1.1-39.4-10.7c-14.9-12.6-23.5-29.2-28.7-47.6
	c-10.5-37.7-8.9-74.8,8.4-110.4c7-14.3,16.8-26.4,31.4-33.8c1.2-0.6,2-2.6,2.5-4.2c0.4-1.6,0.1-3.3,0.1-5c0-97.5,0-195,0-292.5
	c0-7.6,1.6-14.3,8-19.5c1.8-1.5,1.6-5.5,2.4-8.8c-48.4,0-95.7,0-143.3,0c-0.5,4.1-1.2,7.5,3,10.9c2.9,2.4,4.4,6.9,5.6,10.7
	c0.9,2.9,0.5,6.3,0.5,9.4c0,72.5,0,145,0,217.5c0,18.3,0,36.6,0,54.9c0,1.8,0,3.6,0,6.2c2.6,0,4.9,0.1,7.1,0
	c24.1-1.6,34.7,15.3,37.3,32.2c8,52.3,16,104.6,23.9,156.9c3,19.4-10.1,35.4-30,35.6c-36.5,0.4-73,0.3-109.5,0
	c-19.6-0.2-32.5-16.6-30-35.9c3.9-30,7.1-60.1,10.7-90.2c2.7-23,5.2-46,8.2-68.9c2.4-18.2,16-29.6,34.4-29.6c5,0,9.9,0,15.4,0
	c0-2.5,0-4.4,0-6.4c0-91,0-182-0.1-273c0-8.5,0.8-16.1,8.3-21.8c1.6-1.2,1.1-5.4,1.6-8.6c-48.2,0-95.4,0-142.9,0
	c-0.9,4.1-1.2,7.5,2.7,10.5c5.1,3.9,6.4,9.8,6.4,16.1c-0.1,38,0,76,0,114c0,53.2,0,106.3,0,159.5c0,1.8,0,3.6,0,6.3
	c3.9,0,7.4-0.1,11,0c14.4,0.3,25.9,11.8,25.9,26.3c0.1,66,0,132,0,198c0,1-0.1,2-0.2,3.4c-32.4,0-64.8,0-97.8,0
	c-0.1-1.6-0.3-3.3-0.3-5.1c0-58.5-0.1-117,0-175.5c0-17.6,9.6-27,27.3-27c14,0,28,0.2,42-0.1c7.9-0.1,14.8,2,20.4,7.7
	c-1-6.3-9.6-13.3-17.9-13.5c-17.8-0.4-35.7-0.5-53.5,0c-10.4,0.3-19.7,9.9-21,20.2c-0.3,2.8-0.4,5.7-0.4,8.5c0,59.5,0,119,0,178.5
	c0,2,0,4,0,6.3c-1.8,0.1-3.2,0.2-4.8,0.2c-0.1-1.8-0.3-3.3-0.3-4.7c0-65,0-130,0.1-195c0-14.4,7.6-24.8,20.5-27.7
	c5-1.1,10.3-0.7,16.1-1c0.1-1.8,0.3-3.9,0.3-6c0-89.5,0-178.9,0-268.4c0-8.8,0.2-17.3,8.6-23.2c1.5-1.1,1-5.1,1.5-8.3
	C266.4,78.6,219,78.6,171.4,78.6z M427.3,514.8c0,19.5,0,39,0,58.5c0,6.7,1.7,10,5.3,9.5c5.6-0.9,4.9-5.4,4.9-9.4
	c0-38.7,0-77.3,0-116c0-2.2,0.4-4.5-0.5-6.4c-0.7-1.7-2.9-3.8-4.3-3.7c-1.8,0.1-3.8,2-5,3.7c-0.8,1-0.4,2.9-0.4,4.4
	C427.3,475.1,427.3,495,427.3,514.8z M174.5,508.1C174.6,508.1,174.6,508.1,174.5,508.1c0.1,19.5,0.1,39,0.1,58.5
	c0,3.9-1,8.5,4.8,9.3c3.7,0.5,5.3-2.6,5.3-9.4c0-39.3,0-78.7,0-118c0-1.6,0.2-3.7-0.7-4.8c-1.1-1.5-3.2-3.4-4.8-3.3
	c-1.6,0.1-3.3,2.2-4.4,3.8c-0.7,1.1-0.4,2.9-0.4,4.4C174.5,468.5,174.5,488.3,174.5,508.1z M527,514.5c0-19.8,0-39.6,0-59.5
	c0-1.3,0.4-3.1-0.2-3.9c-1.3-1.6-3.3-3.8-4.9-3.8c-1.6,0-3.5,2.3-4.7,4c-0.6,0.9-0.2,2.6-0.2,3.9c0,39.8,0,79.6,0,119.4
	c0,1.2-0.4,2.7,0.2,3.4c1.4,1.8,3.2,4.2,5,4.4c1.4,0.2,3.5-2.4,4.7-4.1c0.6-0.9,0.2-2.6,0.2-3.9C527,554.5,527,534.5,527,514.5z
	 M497.1,515.2c0-19.8,0-39.6,0-59.5c0-1.3,0.5-3-0.1-3.9c-1.3-1.8-3-4.2-4.8-4.5c-1.4-0.2-3.6,2.2-4.8,3.9c-0.7,1-0.3,2.9-0.3,4.4
	c0,26.7,0,53.3,0,80c0,12.5,0,25,0,37.5c0,0.8,0,1.7,0,2.5c-0.2,3.7,0.8,7.1,5,7.2c4.3,0.1,5.1-3.2,5.1-7
	C497,555.5,497.1,535.3,497.1,515.2z M148.8,507.7C148.8,507.7,148.8,507.7,148.8,507.7c0,20,0,40,0,60c0,1.5-0.4,3.3,0.3,4.4
	c0.9,1.5,2.6,3.4,4.1,3.6c1.5,0.2,3.8-1.2,4.8-2.5c1-1.3,0.9-3.5,0.9-5.2c0-39.8,0-79.6,0-119.5c0-1.5,0.4-3.4-0.4-4.4
	c-1.3-1.6-3.4-3.8-5.1-3.7c-1.6,0.1-3.3,2.6-4.4,4.3c-0.6,1-0.2,2.6-0.2,3.9C148.8,468.4,148.8,488,148.8,507.7z M467.2,515.2
	C467.2,515.2,467.2,515.2,467.2,515.2c0-19.7,0-39.3,0-59c0-1.7,0.4-3.6-0.3-4.9c-0.9-1.7-2.6-3.8-4.1-4c-1.6-0.2-3.9,1.4-5,2.9
	c-0.9,1.3-0.7,3.5-0.7,5.3c0,39.6,0,79.3,0,118.9c0,1.5-0.4,3.4,0.4,4.4c1.3,1.6,3.4,3.8,5.1,3.7c1.6-0.1,3.3-2.6,4.4-4.4
	c0.7-1.1,0.2-2.9,0.2-4.4C467.2,554.2,467.2,534.7,467.2,515.2z M674.5,442c0.2-0.1,0.4-0.3,0.6-0.4c-0.4-0.6-0.6-1.4-1.1-1.9
	c-2.8-3.1-5.4-6.4-8.4-9.2c-17.7-16.4-40.9-16.8-58.2,0.1c-6.9,6.7-12.9,15-17.2,23.6c-13.3,26.6-15.6,55-10.7,84.1
	c2.1,12.3,5.8,24.1,12.1,34.9c0.1-0.8-0.1-1.6-0.4-2.3c-11.3-30.1-12.2-60.7-3.2-91.5c4.7-16,12.2-30.6,25-41.8
	c16.1-14.2,36.1-15.3,53-2.8C668.9,437,671.7,439.6,674.5,442z M120.9,507.9c0,13.8,0,27.7,0,41.5c0,3.7,0.7,7,5.2,6.8
	c4.1-0.1,4.9-3.2,4.9-6.7c0-27.5,0-55,0-82.5c0-3.6-0.6-7-5.1-7.1c-4.6-0.1-5.1,3.3-5,7C120.9,480.6,120.9,494.2,120.9,507.9z
	 M209.1,508.6c0-14.2,0-28.3,0-42.5c0-3.4-1-6.1-4.8-6.2c-4.2-0.1-5.3,2.8-5.3,6.3c0,27.8,0,55.7,0,83.5c0,3.6,1.2,6.5,5.2,6.5
	c4.1,0,5-3,4.9-6.6C209,536,209.1,522.3,209.1,508.6z M640.7,94.7c-5.4,6.2-7.6,6.2-14.4,0.3c-3.8,7.5-4,15.1,0,22.4
	c3.7,6.9,10.9,7,14.8,0C645.2,110,645,102.3,640.7,94.7z M157.1,94.5c-4,8.5-4.4,16.3,0.3,23.8c3.6,5.7,9.5,5.8,13.5,0.5
	c4.7-6.1,4.8-17.2,0.3-23.6C165.8,100.9,162.6,100.8,157.1,94.5z M313.4,94.7c-3.7,8.6-4.2,16.6,0.9,24.1c3.5,5.1,9,5.1,12.8,0.2
	c5-6.3,5.2-17.3,0.4-24.1C322.4,100.8,319.2,100.9,313.4,94.7z M470.3,94.9c-4.6,8-4.3,18.1,0.6,24.2c3.4,4.3,7.8,4.7,11.6,1.1
	c5.8-5.5,6.6-18.7,1.4-25C479,100.8,475.8,100.8,470.3,94.9z M56.6,56.6c-7-4.8-15-3.6-19.5,2.3c-4.7,6.2-3.8,14.6,2.2,19.7
	c5.3,4.5,12.6,4.4,16.7-0.1c-13.3-1.2-17.4-3.6-17.6-10.7C38.1,60.7,42.6,57.9,56.6,56.6z M744.4,78.4c5.3,4.8,12.7,4.4,17.9-0.7
	c5.4-5.3,5.6-14.3,0.5-19.8c-5-5.4-12.6-6.1-18.5-1.1c8.5,0.2,18.1-1.4,18.8,10.8c0.1,2.2-1,4.9-2.4,6.8
	C756.6,80,750.1,77.5,744.4,78.4z"/>
<path class="st0" d="M674.5,442c-2.8-2.4-5.5-5-8.5-7.2c-16.8-12.4-36.9-11.4-53,2.8c-12.7,11.3-20.3,25.8-25,41.8
	c-9,30.8-8.1,61.4,3.2,91.5c0.3,0.7,0.5,1.4,0.4,2.3c-6.3-10.9-10-22.7-12.1-34.9c-4.9-29.1-2.6-57.5,10.7-84.1
	c4.3-8.6,10.3-16.8,17.2-23.6c17.2-16.9,40.4-16.5,58.2-0.1c3,2.8,5.6,6.1,8.4,9.2c0.5,0.5,0.7,1.3,1.1,1.9
	C674.9,441.7,674.7,441.9,674.5,442z"/>
<path class="st0" d="M56.6,56.6c-14,1.3-18.5,4.1-18.3,11.2c0.2,7,4.2,9.5,17.6,10.7C51.8,83,44.6,83,39.3,78.5
	c-6-5-6.9-13.5-2.2-19.7C41.6,53,49.6,51.8,56.6,56.6z"/>
<path class="st0" d="M744.4,78.4c5.6-1,12.1,1.6,16.2-4c1.4-1.9,2.5-4.6,2.4-6.8c-0.8-12.1-10.3-10.5-18.8-10.8
	c5.9-5,13.5-4.3,18.5,1.1c5.1,5.5,4.9,14.5-0.5,19.8C757.1,82.8,749.7,83.2,744.4,78.4z"/>
</svg>
