<?xml version="1.0" encoding="utf-8"?>
<!-- Generator: Adobe Illustrator 22.1.0, SVG Export Plug-In . SVG Version: 6.00 Build 0)  -->
<svg version="1.1" id="Layer_1" xmlns="http://www.w3.org/2000/svg" xmlns:xlink="http://www.w3.org/1999/xlink" x="0px" y="0px"
	 viewBox="0 0 512 464" style="enable-background:new 0 0 512 464;" xml:space="preserve">
<style type="text/css">
	.st0{fill:#FFFFFF;}
</style>
<path d="M513,88c-0.5,2.4-1,4.8-1.5,7.2c-9.9,54.4-60,102-114.4,108.3c-15.5,1.8-30.8,0.4-45.6-5.6c-3.3-1.3-8.8,0-12,2
	c-7.9,4.9-16,10-22.2,16.6c-10.5,11.3-19.6,23.9-29.6,36.2c2.3,2.5,3.8,4,5.2,5.5c53.1,53.2,106.3,106.3,159.4,159.5
	c9.9,9.9,12.1,21,6.5,31.7c-7.6,14.5-26.3,18.2-38.8,7.7c-1.8-1.5-3.4-3.2-5.1-4.8c-50.7-50.7-101.4-101.3-152-152
	c-1.4-1.4-2.3-3.3-3.5-4.9c-0.8-0.1-1.6-0.2-2.4-0.3c-1.2,1.8-2.1,4-3.6,5.5c-51.2,51.3-102.5,102.6-153.7,153.8
	c-10.5,10.5-23.1,12.9-33.9,6c-18.4-11.9-20.1-31.3-5.9-45.5c53-52.6,105.6-105.5,158.5-158.3c1.5-1.5,3.4-2.7,5.3-4.3
	c-7.5-10.8-15.8-19.6-25.2-27.3c-18.6-15.1-39.9-22-63.7-22.3c-19.9-0.2-36.4-8-48.9-23.9c-27-34.1-54-68.1-81.1-102.2
	C3.7,75.3,2.3,74.2,1,73c0-0.3,0-0.7,0-1c3.5-3.3,7-6.6,10.8-10.2C48,100.1,84,138.2,119.7,176c4.6-4.4,8.8-8.5,13.8-13.2
	C96.4,125.7,59.3,88.6,22.3,51.7c2.8-2.9,5.5-5.8,8.7-9.2c37.6,37.6,74.9,74.9,111.8,111.9c3.8-3.4,7.4-6.6,11.5-10.3
	C116.6,106.5,79.2,69.3,42,32.2c3.5-3.7,6.5-6.9,10.2-10.8c37.6,37.6,74.9,74.9,112,112c4.2-4,8.3-7.9,12.8-12.2
	C138.3,84.9,99.7,48.7,61.4,12.8c3.2-3.5,6-6.6,8.9-9.7c1,0.6,1.7,1,2.3,1.5c34.7,27,69.4,54,104.1,81.1
	c9.8,7.7,16.9,17.4,21.1,29.1c3.4,9.2,3.7,18.7,4,28.5c1,37.5,18.9,65.4,50.1,85.2c1.2,0.8,4,0.5,5.3-0.4
	c12.6-8.9,25.5-17.6,37.5-27.3c9.6-7.8,17.4-17.5,21.8-29.3c0.9-2.4,1.6-5.8,0.6-8c-7.9-18-9-36.7-4.3-55.3
	c13.9-55.3,49.1-90.5,104.3-104.2c40.1-9.9,79.2,13.1,92,52.2c1.8,5.5,2.7,11.3,4,16.9C513,78,513,83,513,88z M410.1,30.7
	c-0.3-0.4-0.7-0.8-1-1.2c-25.8,9.3-48.5,23-62.3,47.9c-10.3,18.5-15.1,51.5-10,62.3c0.2-0.2,0.6-0.4,0.7-0.7
	c0.3-0.8,0.5-1.6,0.7-2.4c9.8-32.6,22.8-63.2,50.2-85.5C396.1,44.9,402.9,37.5,410.1,30.7z"/>
<path class="st0" d="M410.1,30.7c-7.2,6.9-14,14.2-21.7,20.5c-27.4,22.3-40.4,53-50.2,85.5c-0.2,0.8-0.4,1.6-0.7,2.4
	c-0.1,0.3-0.4,0.4-0.7,0.7c-5-10.8-0.2-43.8,10-62.2c13.8-24.9,36.5-38.6,62.3-47.9C409.4,29.9,409.8,30.3,410.1,30.7z"/>
</svg>
